# xmcd
#
# Track frame offsets:
# 150
# 30311
# 56412
# 82725
# 111772
# 138687
#
# Disc length: 2194 seconds
#
#
# Revision: 0
# Processed by: cddbd v1.5.1PL2 Copyright (c) Steve Scherf et al.
# Submitted via: FreeRIP 2.80 
#
DISCID=41089006
DTITLE=Various Artist - Play The Blues
DYEAR=2001
DGENRE=Jazz
TTITLE0=Classic Blues
TTITLE1=Rhodes Shuffle
TTITLE2=Chicago Blues
TTITLE3=Calypso Stix
TTITLE4=Gritty Slide
TTITLE5=Rock Blues
EXTD=
EXTT0=
EXTT1=
EXTT2=
EXTT3=
EXTT4=
EXTT5=
PLAYORDER=
